Simulation
nRows=40
nColumns=15
endheader
time  TH_x TH_y TH_z SC_y  SC_z  SC_x  AC_y  AC_z  AC_x  GH_y  GH_z  GH_yy  EL_x  PS_y
2.0  0.000000  0.000000  0.000000  -40.87171332388402  6.332920517816903  3.049677313304587  57.266388731714066  11.493843928296661  41.21517898945192  53.24786686800595  27.694247011754793  -42.56781721260271  20.216771596404715  0.000000
2.04  0.000000  0.000000  0.000000  -35.86879819727098  3.400983716059968  -1.6779781169489638  62.5797120815611  17.06663972208848  43.060272567043725  40.088039127780355  31.7655684259422  -27.961040977900282  21.007613989908826  0.000000
2.08  0.000000  0.000000  0.000000  -33.08993841024697  -0.6796083055180773  -4.08784041215932  61.29258004200879  20.351139410587432  43.21275929679349  36.86960724199313  30.9907144412622  -23.551772387133152  23.33897096055061  0.000000
2.12  0.000000  0.000000  0.000000  -35.22536278188618  0.6897174643017221  -4.995846942034219  62.89187358944856  21.61572701387638  44.00625562134788  33.383719173590485  30.475087817686514  -22.36725339104474  24.181364835526715  0.000000
2.16  0.000000  0.000000  0.000000  -35.71816512481618  0.8145920368211207  -5.645549384077636  61.74680113196983  22.175842567743484  44.537892364685284  31.76950424317134  29.827658676294973  -23.19437521432627  24.131523331286683  0.000000
2.2  0.000000  0.000000  0.000000  -34.70786644750902  0.09419027235997245  -6.037513968336239  61.4003963250972  22.407287104815648  44.1134942893078  29.38779469126007  30.065078129706173  -23.738115855447532  23.603797738444232  0.000000
2.24  0.000000  0.000000  0.000000  -35.19581866362238  0.6873225229264799  -5.790952421791257  62.31297284860681  22.20866772682914  44.567891687795175  28.868458322528916  29.13024545857356  -24.801294247164005  22.649566141695168  0.000000
2.2800000000000002  0.000000  0.000000  0.000000  -34.161600014217264  0.2483580888087731  -5.863599606334761  61.695688242476486  21.97777886731316  44.1664397137965  29.348289839189935  28.27996269271266  -25.446816001674303  23.244742010649137  0.000000
2.32  0.000000  0.000000  0.000000  -33.83483366183342  0.24388413094327482  -5.741979146749017  62.40977930276103  21.793979245861163  44.33674621007307  29.36932417109088  27.10449764641683  -26.035245148574724  22.952920825037715  0.000000
2.36  0.000000  0.000000  0.000000  -33.467859898916686  0.2936397407403621  -5.941591107941491  62.639190158923334  21.910325030626712  44.4099590022735  30.211263162702693  25.76340710234602  -26.522733886063556  23.095294543772084  0.000000
2.4  0.000000  0.000000  0.000000  -32.87248068539093  -0.004767605603819652  -6.207356692113928  62.654378029863835  21.98598154949222  44.517088346037525  30.759345820756366  24.542557292635  -26.72675352899243  23.167382310488904  0.000000
2.44  0.000000  0.000000  0.000000  -32.82044239140143  0.03390977951510447  -6.253817646290028  63.19715577826302  22.137738389311313  44.57627261163349  31.475112125127296  23.36316795144137  -27.15324777568892  22.884710436847897  0.000000
2.48  0.000000  0.000000  0.000000  -32.5559335280881  -0.17019202035069217  -6.250700372958475  63.18866730071473  22.05982505609277  44.535679492442334  32.42504330278558  22.302110942943973  -27.46690338368418  22.884106191366  0.000000
2.52  0.000000  0.000000  0.000000  -32.52404983142535  -0.264110659779977  -5.903895274009577  63.529742748513414  21.845114443982027  44.327051795887385  33.47922503513148  21.43471161176448  -27.970928735906657  22.639612676425195  0.000000
2.56  0.000000  0.000000  0.000000  -32.556525006909126  -0.29015209403623055  -5.449079616223219  63.75793154824632  21.425531382542758  44.11066418381436  34.80553665970564  20.749069116728233  -28.45130967015626  22.532336127525852  0.000000
2.6  0.000000  0.000000  0.000000  -32.4692872481899  -0.365084024094005  -4.92137042886957  63.86970481122883  20.93439528796755  43.81088945325842  36.11901936064207  20.26722735147361  -28.855018392061588  22.508087465912094  0.000000
2.64  0.000000  0.000000  0.000000  -32.44015437532125  -0.3543412104678027  -4.446588321213943  64.10838844325876  20.447972835933857  43.60371036182125  37.28670287430666  20.01185043656476  -29.062690251049652  22.36594360839971  0.000000
2.68  0.000000  0.000000  0.000000  -32.21822495962  -0.31457529893129066  -4.236169317180201  64.116352874827  20.131078549758225  43.539026138809895  38.286890851624364  19.84148108767174  -29.010241791586  22.36773559114447  0.000000
2.72  0.000000  0.000000  0.000000  -31.98605774472438  -0.23337525496039999  -4.147725717996574  64.1782698779231  19.918953199969046  43.57315602580858  38.947559243028564  19.739105881560388  -28.752637376085758  22.365234706282973  0.000000
2.7600000000000002  0.000000  0.000000  0.000000  -31.767652699702232  -0.1468164211676947  -4.250460773598335  64.19521577015855  19.876199880496454  43.6816183421083  39.277909054325434  19.632977573588466  -28.32718795359008  22.4926232725367  0.000000
2.8000000000000003  0.000000  0.000000  0.000000  -31.566610384740155  -0.09470499371806787  -4.348380578759085  64.14050080283333  19.867605554868383  43.787911129342724  39.215746849791934  19.449479328544083  -27.801547524382364  22.690788671732513  0.000000
2.84  0.000000  0.000000  0.000000  -31.513305865763925  -0.06145376492689744  -4.48061067636525  64.1523934064998  19.945539107045978  43.85298381281111  38.70029095677191  19.265714546877916  -27.25704741919996  22.882142726529977  0.000000
2.88  0.000000  0.000000  0.000000  -31.57275175473156  -0.07497532966660148  -4.558323454877633  64.06043142262159  20.036966605064404  43.879767647441994  37.832112233665306  19.013220833446386  -26.683352784036007  23.028862107398655  0.000000
2.92  0.000000  0.000000  0.000000  -31.80948872629029  -0.12944451525883036  -4.6075530454429865  64.031225912991  20.191197627233088  43.81547279537205  36.594932849454125  18.81378829389168  -26.189548760909005  23.00468717091485  0.000000
2.96  0.000000  0.000000  0.000000  -32.20203367318647  -0.21794546006137183  -4.691289041448807  63.91693312594343  20.45560731325462  43.773855776518324  35.143060590635116  18.60791382953671  -25.68975198132953  22.825563512222246  0.000000
3.0  0.000000  0.000000  0.000000  -32.64614978377312  -0.270281378519727  -4.829731210334577  63.78498367359241  20.776331209309426  43.73962470330025  33.526277818636245  18.591458672307766  -25.253429609768123  22.4485314989868  0.000000
3.04  0.000000  0.000000  0.000000  -33.05800867599763  -0.28169271368902926  -5.111152519740127  63.550475012216914  21.17547422471189  43.82103545671621  31.853222776443896  18.801285800852455  -24.7610222287902  21.888058666350194  0.000000
3.08  0.000000  0.000000  0.000000  -33.356579848854615  -0.20588421859078948  -5.44422009354772  63.230993293307925  21.52890328863656  43.97133216450273  30.288698322800904  19.321285089557257  -24.244291475059878  21.193762085469384  0.000000
3.12  0.000000  0.000000  0.000000  -33.525607233448895  0.0165219086422617  -5.8160806029006356  62.845378140344266  21.766735451648266  44.21630272519657  28.911183587719787  20.176944206302846  -23.62588590173712  20.406574089865533  0.000000
3.16  0.000000  0.000000  0.000000  -33.6156790238558  0.30094794408010933  -6.052563033450911  62.45448741206728  21.83812999842569  44.42725822324188  27.809948162968542  21.30752771263578  -22.86435330873712  19.551043530339946  0.000000
3.2  0.000000  0.000000  0.000000  -33.74723755885395  0.5688900030369252  -6.191281705883636  62.11336916068214  21.837407735227554  44.57396283425395  26.949714442682197  22.68911248561211  -21.921256131480664  18.694430521529444  0.000000
3.24  0.000000  0.000000  0.000000  -33.92348349481202  0.759660277289518  -6.199720103379226  61.803547674591826  21.78705177781143  44.63600804151799  26.264982848432588  24.274611678952244  -20.773184568279376  17.88164590657812  0.000000
3.2800000000000002  0.000000  0.000000  0.000000  -34.127259475386715  0.8556396817761952  -6.137911744226093  61.58627576850602  21.75620039657454  44.615091566429335  25.718544484813602  26.05687008260308  -19.510173357008274  17.135967947509013  0.000000
3.3200000000000003  0.000000  0.000000  0.000000  -34.35835347343906  0.9016757082912886  -6.009172457303859  61.43069963973314  21.731234215133572  44.56805347221125  25.333926843395048  27.924702419289233  -18.1974938329837  16.564479880027857  0.000000
3.36  0.000000  0.000000  0.000000  -34.57926145270406  0.8684144370873685  -5.841377697709782  61.34680038813814  21.71335106918936  44.44931377042475  25.132252422238835  29.864770769883343  -16.93966161960783  16.17817394545841  0.000000
3.4  0.000000  0.000000  0.000000  -34.811802647783324  0.7947204324137891  -5.627141686925157  61.30656225539515  21.68436738272007  44.31185624350776  25.113715140421697  31.72577642047765  -15.798146995427361  16.04701847847628  0.000000
3.44  0.000000  0.000000  0.000000  -35.032743606114735  0.6964642934601617  -5.363245549386815  61.32071545093203  21.6409760623835  44.13172519707827  25.246902390095023  33.446605080485924  -14.849227939340787  16.172152991977175  0.000000
3.48  0.000000  0.000000  0.000000  -35.217690820543275  0.5842963837974813  -5.0968123844026945  61.32474539670427  21.556064597867206  43.950158021242004  25.552109417157588  35.004458751373335  -14.037012346114738  16.567557262068483  0.000000
3.52  0.000000  0.000000  0.000000  -35.40443616589236  0.4783371568385015  -4.8264710405896425  61.40595550343253  21.48672791400182  43.75338046344835  25.947042754854603  36.34953724306742  -13.432311164009679  17.165746832201627  0.000000
3.56  0.000000  0.000000  0.000000  -35.5417916115665  0.35405107583225504  -4.587645629369499  61.4943343013495  21.40821525198071  43.58459230866216  26.383001374979248  37.47734485924219  -12.957594242374157  17.892232195019474  0.000000
